<svg width="125" height="27" viewBox="0 0 125 27" fill="none" xmlns="http://www.w3.org/2000/svg">
<path d="M72.6839 0H75.0699L85.526 26.9935H82.9295L80.2278 19.8257H67.0699L64.2628 26.9935H61.8418L72.6839 0ZM73.7716 2.7451L67.9821 17.5381H79.3857L73.7716 2.7451Z" fill="#0E1A48"/>
<path d="M90.1882 15.3686L80.2637 0H83.2792L91.4479 12.8136L99.8074 0H102.632L92.7075 15.3686V27H90.1882V15.3686Z" fill="#0E1A48"/>
<path d="M105.264 0H112.444C114.455 0 116.159 0.292372 117.558 0.877116C118.957 1.43644 120.115 2.16102 121.033 3.05085C121.973 3.94068 122.706 4.9322 123.23 6.02542C123.777 7.09322 124.17 8.12288 124.41 9.11441C124.673 10.1059 124.837 11.0085 124.902 11.822C124.968 12.6102 125.001 13.1695 125.001 13.5C125.001 13.8305 124.968 14.4025 124.902 15.2161C124.837 16.0042 124.673 16.8941 124.41 17.8856C124.17 18.8771 123.777 19.9195 123.23 21.0127C122.706 22.0805 121.973 23.0593 121.033 23.9492C120.115 24.839 118.957 25.5763 117.558 26.161C116.159 26.7203 114.455 27 112.444 27H105.264V0ZM107.428 24.7119H111.886C113.416 24.7119 114.848 24.4958 116.181 24.0636C117.515 23.6059 118.673 22.9195 119.656 22.0042C120.64 21.089 121.416 19.9322 121.984 18.5339C122.553 17.1102 122.837 15.4322 122.837 13.5C122.837 11.5678 122.553 9.90254 121.984 8.50424C121.416 7.08051 120.64 5.91102 119.656 4.99576C118.673 4.08051 117.515 3.40678 116.181 2.97457C114.848 2.51695 113.416 2.28814 111.886 2.28814H107.428V24.7119Z" fill="#0E1A48"/>
<path d="M42.1055 26.9935V13.9262V0L47.7764 6.50449e-05H59.2649L52.8716 12.3618L60.5955 26.9935H48.75H42.1055Z" fill="#0E1A48"/>
<path d="M36.8211 26.9935L30.2422 13.0877L36.8211 0H42.0637L35.5053 13.7421L42.0637 26.9935H36.8211Z" fill="#0E1A48"/>
<path d="M0 13.5C0 11.5403 0.355263 9.7379 1.06579 8.09274C1.77632 6.44758 2.76316 5.03226 4.02632 3.84677C5.28947 2.6371 6.80263 1.69355 8.56579 1.01613C10.3553 0.33871 12.3158 0 14.4474 0C16.5789 0 18.5263 0.33871 20.2895 1.01613C22.0789 1.69355 23.6053 2.6371 24.8684 3.84677C26.1316 5.03226 27.1184 6.44758 27.8289 8.09274C28.5395 9.7379 28.8947 11.5403 28.8947 13.5C28.8947 15.4597 28.5395 17.2742 27.8289 18.9435C27.1184 20.5887 26.1316 22.0161 24.8684 23.2258C23.6053 24.4113 22.0789 25.3427 20.2895 26.0202C18.5263 26.6734 16.5789 27 14.4474 27C12.3158 27 10.3553 26.6734 8.56579 26.0202C6.80263 25.3427 5.28947 24.4113 4.02632 23.2258C2.76316 22.0161 1.77632 20.5887 1.06579 18.9435C0.355263 17.2742 0 15.4597 0 13.5ZM2.60526 13.5C2.60526 15.0968 2.88158 16.5847 3.43421 17.9637C3.98684 19.3427 4.77632 20.5403 5.80263 21.5565C6.82895 22.5726 8.06579 23.371 9.51316 23.9516C10.9868 24.5323 12.6316 24.8226 14.4474 24.8226C16.2632 24.8226 17.8947 24.5323 19.3421 23.9516C20.8158 23.371 22.0658 22.5726 23.0921 21.5565C24.1184 20.5403 24.9079 19.3427 25.4605 17.9637C26.0132 16.5847 26.2895 15.0968 26.2895 13.5C26.2895 11.9032 26.0132 10.4153 25.4605 9.03629C24.9079 7.65726 24.1184 6.45968 23.0921 5.44355C22.0658 4.42742 20.8158 3.62903 19.3421 3.04839C17.8947 2.46774 16.2632 2.17742 14.4474 2.17742C12.6316 2.17742 10.9868 2.46774 9.51316 3.04839C8.06579 3.62903 6.82895 4.42742 5.80263 5.44355C4.77632 6.45968 3.98684 7.65726 3.43421 9.03629C2.88158 10.4153 2.60526 11.9032 2.60526 13.5Z" fill="#0E1A48"/>
</svg>
